# xmcd
# Track frame offsets:
# 180
# 16216
# 26764
# 40351
# 49230
# 63250
# 77391
# 90210
# 99948
# 112911
#
# Disc length: 1668 seconds
# Revision: 0
# Processed by: cddbd v1.4PL0 Copyright (c) Steve Scherf et al.
# Submitted via: VisiTrax 2.9.5.180 - For more info visit www.synapsa.com
#
DISCID=6706820a
DTITLE=Stephanie Hunter - There's me
DYEAR=1900
DGENRE=
TTITLE0=There's me
TTITLE1=Rocky top and rose of San Antone
TTITLE2=Forever no more
TTITLE3=A lot of love between you and me
TTITLE4=Me minus you equals blue
TTITLE5=Nothing to cry about
TTITLE6=Tall cool one
TTITLE7=Every twice in a while
TTITLE8=Fragile
TTITLE9=How long do I have with you
EXTD=
EXTT0=
EXTT1=
EXTT2=
EXTT3=
EXTT4=
EXTT5=
EXTT6=
EXTT7=
EXTT8=
EXTT9=
PLAYORDER=
